<svg width="256" height="256" viewBox="0 0 256 256" fill="none" xmlns="http://www.w3.org/2000/svg">
<g clip-path="url(#clip0_6038_357)">
<path fill-rule="evenodd" clip-rule="evenodd" d="M236.191 182.096C236.191 209.244 216.191 231.721 190.122 235.599C175.376 254.164 150.053 260.949 128 252.244C105.947 260.95 80.6233 254.164 65.877 235.598C42.4269 232.109 23.8907 213.572 20.4025 190.121C-0.235881 173.729 -6.3183 144.264 7.25592 120.752C12.182 112.22 19.0821 105.538 27.0456 100.949C22.444 92.9929 19.809 83.757 19.8089 73.9052C19.8089 46.7565 39.8083 24.2792 65.8778 20.4014C80.624 1.83681 105.947 -4.94927 128 3.75522C150.052 -4.9486 175.375 1.8369 190.121 20.401C213.571 23.8888 232.11 42.426 235.599 65.8765C256.237 82.2695 262.318 111.735 248.744 135.247C243.818 143.779 236.918 150.461 228.955 155.051C233.557 163.007 236.19 172.244 236.191 182.096ZM114.999 107.773C103.674 109.216 91.802 107.101 81.1516 100.952C55.2782 86.014 46.4133 52.9297 61.3513 27.0563C62.5037 25.0602 63.7651 23.1661 65.1219 21.3756C39.8916 25.5627 20.6543 47.4875 20.6543 73.9053C20.6544 83.6058 23.2493 92.6999 27.7813 100.533C43.8512 91.6036 64.072 91.0912 81.1516 100.952C89.4277 105.73 95.9637 112.365 100.537 120.027C106.062 116.829 110.96 112.669 114.999 107.773ZM73.8726 128C54.1637 127.988 36.9216 117.437 27.4745 101.677C19.6328 106.195 12.8383 112.774 7.98792 121.175C-5.22069 144.053 0.477207 172.659 20.2336 188.9C19.9538 186.671 19.8089 184.4 19.8089 182.095C19.8091 152.229 44.0113 128.017 73.8726 128ZM120.026 100.537C112.365 95.9635 105.73 89.4278 100.952 81.1517C91.0908 64.0719 91.603 43.8505 100.533 27.7805C92.6995 23.2486 83.6049 20.6551 73.9044 20.655C71.3338 20.655 68.8057 20.8369 66.3324 21.189C64.7908 23.1549 63.3686 25.2527 62.0833 27.4789C47.3787 52.9481 56.1051 85.5154 81.5742 100.22C92.3332 106.432 104.359 108.462 115.769 106.815C117.331 104.831 118.755 102.734 120.026 100.537ZM126.857 4.22028C105.626 -3.75029 81.5018 2.71448 67.0998 20.2329C69.3286 19.9532 71.5998 19.8097 73.9045 19.8097C83.7563 19.8097 92.9928 22.4432 100.949 27.0448C105.538 19.0818 112.22 12.1823 120.752 7.2564C122.748 6.10388 124.787 5.09253 126.857 4.22028ZM99.8022 120.444C95.3009 112.909 88.8699 106.384 80.729 101.684C63.9226 91.9809 44.0261 92.4807 28.2102 101.261C37.517 116.773 54.4979 127.156 73.9045 127.156C83.3049 127.156 92.1364 124.719 99.8022 120.444ZM128.001 73.8829C128.008 54.1698 138.56 36.9234 154.323 27.4745C149.805 19.6328 143.226 12.8384 134.824 7.98793C132.598 6.70267 130.318 5.59702 128 4.6653C125.682 5.59707 123.401 6.7031 121.174 7.98848C112.774 12.8387 106.195 19.6325 101.677 27.4739C117.44 36.9225 127.993 54.1699 128.001 73.8829ZM107.363 147.798C107.361 145.259 107.176 142.729 106.816 140.229C97.757 133.098 86.3273 128.844 73.9044 128.844C44.4953 128.844 20.6545 152.686 20.6543 182.095C20.6543 184.665 20.8374 187.193 21.1894 189.667C23.1553 191.208 25.2527 192.631 27.4788 193.916C35.8799 198.767 45.0536 201.066 54.1035 201.058C54.4058 182.677 64.0719 164.909 81.1511 155.048C89.4273 150.27 98.4412 147.927 107.363 147.798ZM120.444 99.8011C124.719 92.1357 127.154 83.305 127.155 73.9053C127.155 54.499 116.773 37.5169 101.262 28.21C92.481 44.026 91.9802 63.9231 101.683 80.7297C106.384 88.8705 112.909 95.2998 120.444 99.8011ZM65.1204 234.624C63.7639 232.833 62.5023 230.94 61.3502 228.944C56.4241 220.412 54.088 211.095 54.0952 201.904C44.9043 201.911 35.5881 199.574 27.0562 194.648C25.0602 193.496 23.166 192.235 21.3756 190.878C25.0885 213.25 42.748 230.91 65.1204 234.624ZM188.899 20.2322C174.497 2.71409 150.373 -3.74951 129.142 4.22092C131.212 5.09312 133.251 6.10353 135.247 7.25593C143.779 12.182 150.462 19.0815 155.051 27.0449C163.007 22.4432 172.243 19.8087 182.095 19.8087C184.4 19.8087 186.67 19.9526 188.899 20.2322ZM106.627 139.016C105.577 132.757 103.415 126.705 100.229 121.174C92.4474 125.517 83.4824 127.994 73.9392 128C86.2233 128.008 97.5493 132.11 106.627 139.016ZM154.315 80.7292C164.018 63.9229 163.519 44.0261 154.738 28.2103C139.227 37.5172 128.845 54.498 128.845 73.9043C128.845 83.3043 131.282 92.1347 135.557 99.8003C143.091 95.299 149.616 88.8694 154.315 80.7292ZM100.22 174.425C104.92 166.285 107.227 157.419 107.357 148.643C98.581 148.773 89.7143 151.08 81.5732 155.78C64.7675 165.483 55.2531 182.964 54.9486 201.05C73.0356 200.746 90.5167 191.232 100.22 174.425ZM155.038 135.244C151.65 129.361 149.404 122.899 148.398 116.223C145.212 113.682 142.319 110.789 139.778 107.603C135.747 106.996 131.794 105.936 128 104.446C124.206 105.936 120.254 106.995 116.224 107.602C112.015 112.881 106.839 117.355 100.964 120.756C104.352 126.638 106.597 133.1 107.602 139.776C110.789 142.317 113.683 145.211 116.225 148.398C120.254 149.005 124.206 150.064 127.999 151.553C131.794 150.064 135.747 149.004 139.778 148.397C143.987 143.118 149.163 138.644 155.038 135.244ZM134.827 100.229C130.482 92.4449 128.004 83.4768 128 73.9301C127.996 83.4766 125.518 92.445 121.174 100.229C123.374 101.496 125.655 102.601 128 103.538C130.345 102.601 132.627 101.496 134.827 100.229ZM100.533 228.219C91.6042 212.149 91.0917 191.928 100.953 174.848C105.731 166.573 112.365 160.037 120.027 155.464C118.755 153.267 117.333 151.169 115.771 149.185C113.272 148.824 110.742 148.64 108.203 148.637C108.073 157.559 105.731 166.573 100.953 174.848C91.0917 191.928 73.3229 201.594 54.9414 201.896C54.933 210.946 57.2318 220.12 62.0822 228.521C63.3672 230.747 64.7899 232.844 66.3311 234.81C68.8049 235.162 71.3333 235.345 73.9044 235.345C83.6053 235.345 92.7001 232.751 100.533 228.219ZM201.059 54.1021C201.067 45.0528 198.765 35.8801 193.915 27.4794C192.63 25.2531 191.208 23.1548 189.666 21.1887C187.193 20.8367 184.665 20.6541 182.095 20.6541C172.394 20.6541 163.3 23.2485 155.467 27.7806C164.396 43.8505 164.908 64.0721 155.047 81.1518C150.269 89.4272 143.635 95.963 135.974 100.536C137.246 102.733 138.669 104.832 140.231 106.816C142.73 107.176 145.259 107.36 147.798 107.362C147.928 98.4409 150.269 89.4277 155.047 81.1518C164.908 64.0722 182.677 54.404 201.059 54.1021ZM126.854 103.982C124.765 103.107 122.728 102.1 120.757 100.964C119.617 102.934 118.355 104.824 116.984 106.626C120.35 106.062 123.656 105.176 126.854 103.982ZM139.017 106.627C137.646 104.824 136.385 102.933 135.245 100.963C133.272 102.099 131.235 103.107 129.146 103.982C132.344 105.176 135.651 106.062 139.017 106.627ZM115 148.228C112.828 145.595 110.407 143.174 107.774 141.002C108.06 143.249 108.206 145.517 108.208 147.793C110.485 147.796 112.753 147.941 115 148.228ZM174.424 100.221C191.231 90.5174 200.746 73.0358 201.05 54.9485C182.963 55.2528 165.483 64.7676 155.78 81.5737C151.08 89.7146 148.774 98.5809 148.644 107.357C157.419 107.226 166.284 104.92 174.424 100.221ZM101.261 227.789C116.773 218.482 127.155 201.501 127.155 182.095C127.154 172.695 124.719 163.864 120.445 156.199C112.91 160.7 106.385 167.13 101.685 175.271C91.9817 192.077 92.4815 211.973 101.261 227.789ZM126.858 251.779C124.788 250.907 122.749 249.897 120.753 248.744C112.221 243.818 105.539 236.918 100.949 228.955C92.9932 233.556 83.7565 236.19 73.9044 236.19C71.599 236.19 69.3274 236.046 67.098 235.766C81.5002 253.286 105.626 259.751 126.858 251.779ZM234.624 65.1206C230.911 42.7478 213.251 25.0875 190.878 21.3746C192.235 23.1652 193.495 25.0605 194.647 27.0567C199.573 35.5885 201.91 44.9044 201.903 54.0951C211.095 54.0878 220.411 56.4246 228.943 61.3507C230.939 62.5031 232.834 63.7639 234.624 65.1206ZM148.227 114.998C147.941 112.752 147.795 110.484 147.793 108.208C145.517 108.206 143.249 108.059 141.002 107.773C143.175 110.406 145.595 112.826 148.227 114.998ZM126.853 152.019C123.656 150.825 120.351 149.94 116.985 149.375C118.356 151.177 119.617 153.067 120.757 155.036C122.728 153.901 124.765 152.894 126.853 152.019ZM182.095 127.155C211.504 127.155 235.345 103.313 235.345 73.9043C235.345 71.3338 235.163 68.8055 234.811 66.3322C232.845 64.7905 230.747 63.3681 228.521 62.0827C220.12 57.2324 210.946 54.9322 201.897 54.9405C201.595 73.3225 191.927 91.0916 174.847 100.953C166.572 105.73 157.559 108.073 148.638 108.203C148.641 110.742 148.825 113.27 149.185 115.769C158.244 122.9 169.672 127.155 182.095 127.155ZM154.322 228.526C138.554 219.074 128 201.818 128 182.096C128 172.54 130.478 163.563 134.826 155.771C132.627 154.504 130.345 153.399 128.001 152.462C125.656 153.399 123.375 154.504 121.175 155.771C125.523 163.562 128 172.539 128 182.095C128 201.817 117.446 219.073 101.678 228.525C106.195 236.367 112.774 243.162 121.175 248.012C123.401 249.297 125.681 250.404 127.999 251.335C130.317 250.403 132.598 249.298 134.824 248.013C143.225 243.162 149.804 236.368 154.322 228.526ZM248.012 134.824C261.22 111.946 255.523 83.3398 235.767 67.0985C236.047 69.3276 236.191 71.5994 236.191 73.9044C236.19 103.78 211.971 128 182.095 128C169.798 128 158.46 123.895 149.375 116.983C150.425 123.243 152.586 129.295 155.772 134.826C163.563 130.478 172.539 128 182.095 128C201.817 128 219.073 138.554 228.526 154.321C236.367 149.804 243.161 143.225 248.012 134.824ZM139.016 149.374C135.65 149.939 132.344 150.825 129.147 152.019C131.235 152.894 133.273 153.901 135.245 155.037C136.385 153.067 137.645 151.177 139.016 149.374ZM193.917 228.521C208.621 203.052 199.894 170.485 174.426 155.78C163.667 149.569 151.641 147.539 140.231 149.185C138.669 151.169 137.246 153.267 135.974 155.464C143.635 160.037 150.268 166.573 155.046 174.848C164.907 191.928 164.396 212.149 155.467 228.219C163.3 232.751 172.394 235.346 182.095 235.346C184.666 235.346 187.194 235.163 189.668 234.811C191.209 232.845 192.631 230.747 193.917 228.521ZM154.738 227.79C163.518 211.974 164.017 192.077 154.314 175.271C149.614 167.131 143.09 160.701 135.556 156.199C131.282 163.865 128.845 172.696 128.845 182.096C128.845 201.502 139.226 218.483 154.738 227.79ZM190.879 234.625C216.108 230.437 235.345 208.513 235.345 182.096C235.345 172.395 232.751 163.3 228.219 155.467C212.149 164.396 191.928 164.908 174.848 155.047C166.573 150.269 160.038 143.634 155.465 135.974C149.939 139.171 145.042 143.332 141.002 148.227C152.327 146.785 164.198 148.899 174.848 155.047C200.721 169.985 209.586 203.07 194.649 228.944C193.496 230.94 192.235 232.835 190.879 234.625ZM227.789 154.738C218.482 139.227 201.501 128.845 182.095 128.845C172.696 128.845 163.865 131.281 156.2 135.556C160.701 143.09 167.13 149.615 175.271 154.315C192.077 164.018 211.973 163.518 227.789 154.738ZM188.901 235.768C186.672 236.047 184.4 236.191 182.095 236.191C172.243 236.191 163.006 233.557 155.05 228.955C150.461 236.919 143.778 243.818 135.246 248.744C133.25 249.897 131.212 250.907 129.142 251.779C150.374 259.75 174.499 253.287 188.901 235.768Z" fill="black"/>
</g>
<defs>
<clipPath id="clip0_6038_357">
<rect width="256" height="256" fill="white"/>
</clipPath>
</defs>
</svg>
