<svg width="575" height="337" viewBox="0 0 575 337" fill="none" xmlns="http://www.w3.org/2000/svg">
<g clip-path="url(#clip0_6267_16)">
<path fill-rule="evenodd" clip-rule="evenodd" d="M262.359 0.248047C262.691 0.319003 263.018 0.411839 263.338 0.526367C266.735 1.74875 265.84 9.66794 266.042 12.793C267.552 36.1633 259.041 58.2393 251.818 80.0244C248.595 89.9654 244.557 99.667 241.104 109.516C233.98 129.836 225.57 149.619 217.855 169.687C285.99 160.685 354.36 153.562 422.89 148.324C439.438 147.031 456.002 145.929 472.576 145.018C479.373 144.631 486.549 144.138 493.361 143.986C494.682 143.957 495.536 144.322 496.376 145.266C496.389 146.209 496.488 146.218 495.832 147.091C495.297 147.667 494.231 148.333 493.429 148.365C489.924 148.503 486.418 148.555 482.916 148.765L451.229 150.634C372.525 156.039 294.014 163.948 215.812 174.351C204.919 199.852 194.201 221.724 181.601 246.31C189.439 244.726 195.469 243.745 203.398 242.895C209.217 242.27 219.536 241.657 224.72 240.218C226.318 238.495 229.499 235.65 231.392 238.669C231.656 241.867 225.719 245.443 223.514 247.538C213.897 256.693 215.385 261.97 225.578 269.302C230.468 272.819 238.84 274.801 240.784 280.435C253.626 275.818 270.558 267.262 280.6 258.244C275.302 254.201 278.323 252.114 281.273 247.191C282.455 245.769 283.811 243.431 285.247 242.295C293.868 235.477 291.709 248.625 290.867 252.225C297.723 250.011 302.804 247.474 308.544 243.197C304.154 240.489 297.644 234.874 306.501 230.866C308.51 229.957 313.542 230.476 315.507 231.605C319.76 234.05 318.165 238.173 316.351 241.549C336.025 249.592 352.603 250.307 373.197 250.265C373.14 243.899 374.04 239.967 377.501 234.537C395.966 205.558 425.611 187.095 458.784 179.535C462.289 178.736 473.738 175.92 476.498 177.614C477.157 178.695 477.027 178.209 477.023 179.45C475.607 181.956 468.08 182.033 464.722 182.681C449.663 185.684 435.159 190.998 421.725 198.435C414.059 202.424 403.724 210.489 397.621 216.733C390.77 223.749 381.64 233.597 378.322 242.996C377.501 245.32 377.558 247.665 377.555 250.081C383.814 250.839 382.7 254.631 377.109 256.211C376.476 255.95 374.292 254.978 373.795 254.924C366.342 254.11 358.775 254.9 351.233 254.194C338.162 252.96 325.331 249.864 313.132 244.999C307.72 249.608 301.499 253.178 294.791 255.529C286.557 258.44 289.116 256.374 282.16 262.524C269.851 273.142 254.147 280.169 238.976 285.681C235.766 286.846 228.362 289.848 225.905 287.05C225.667 285.856 225.739 284.809 226.895 284.188C229.769 282.644 233.22 281.582 236.256 280.35C232.124 277.489 227.074 275.879 222.847 272.716C210.892 263.769 208.989 257.022 219.331 245.563C215.56 246.34 208.188 246.732 204.006 247.195C195.545 248.061 187.149 249.472 178.87 251.42C170.918 266.138 162.766 280.747 154.417 295.243C136.659 326.56 116.029 366.463 112.094 300.102C111.427 291.494 109.647 283.115 109.378 274.468C109.2 268.728 111.21 265.848 116.524 263.54C122.849 260.793 129.747 259.452 136.377 257.625C149.478 254.014 162.917 251.197 175.993 247.538C188.595 223.905 200.169 199.738 210.681 175.104C198.575 177.092 185.873 178.673 173.645 180.57L90.1807 193.491C71.2967 196.264 52.2996 198.512 33.5 201.807C27.0472 202.933 20.9228 204.389 14.7705 206.618C11.3359 207.863 4.42917 212.394 1.27441 211.415C0.48458 210.656 0.681697 211.034 0.489258 210.002C0.887846 208.341 2.60676 207.367 4.03027 206.635C19.6107 198.623 37.848 196.433 55.0205 194.02C68.1675 192.243 81.3057 190.394 94.4326 188.475C133.822 182.187 173.254 176.171 212.726 170.429C222.287 147.281 231.331 123.923 239.85 100.372C247.705 79.1928 256.186 56.076 260.635 33.8955C262.129 25.8121 261.784 17.3267 261.655 9.13281C261.618 6.74282 257.539 3.80598 262.359 0.248047ZM172.672 253.249C172.084 253.108 172.284 253.067 171.757 253.199C161.303 255.742 150.868 258.366 140.454 261.069C133.145 262.953 119.933 265.462 114.414 270.225C112.391 271.971 115.449 290.603 115.899 294.009C117.295 304.564 116.982 316.67 120.312 326.786C121.26 328.903 121.918 330.272 123.548 331.966C132.76 326.506 142.301 307.788 147.763 298.162C153.832 287.562 159.838 276.925 165.779 266.253C166.687 264.628 172.636 254.379 172.672 253.249ZM287.036 246.984C285.972 248.357 282.436 252.295 282.894 253.925C284.553 253.612 284.831 253.569 285.854 252.116C286.666 250.965 287.582 248.316 287.036 246.984ZM313.593 236.244C312.23 234.233 308.84 234.971 306.561 235.102C306.742 237.349 309.992 239.332 312.049 239.514L312.718 239.198C313.202 238.189 313.72 237.358 313.593 236.244Z" fill="black"/>
<path d="M542.131 84.3177C546.521 84.6953 547.83 90.1164 548.049 93.8154C548.454 100.615 549.1 109.496 547.862 116.134C544.041 136.602 533.605 155.907 524.233 174.301C515.262 191.903 506.026 209.371 496.532 226.698C486.367 245.551 477.106 262.407 468.943 282.243C471.646 280.376 474.346 278.471 477.132 276.729C479.045 275.533 482.814 273.327 483.075 277.299C482.19 279.342 479.402 280.593 477.412 281.77C474.445 283.59 466.938 290.3 464.098 289.641C463.56 289.163 463.324 288.991 463.124 288.266C461.153 281.089 494.094 222.081 499.423 212.184C507.127 197.991 514.625 183.688 521.912 169.277C532.603 148.227 545.369 125.424 544.111 101.414C543.978 98.554 543.978 95.1727 543.293 92.395C542.876 90.7037 540.466 92.0241 539.527 89.1977C539.642 87.6048 541.071 85.493 542.131 84.3177Z" fill="black"/>
<path d="M560.023 237.748C562.656 238.282 571.356 246.466 574.018 248.311C574.623 248.731 574.489 249.457 574.448 250.095C573.891 251.12 573.362 251.332 572.382 251.919C568.975 249.879 565.336 246.865 561.974 244.697C561.519 244.403 560.297 245.353 558.727 244.46C557.326 242.174 557.683 239.306 560.023 237.748Z" fill="black"/>
</g>
<defs>
<clipPath id="clip0_6267_16">
<rect width="575" height="337" fill="white"/>
</clipPath>
</defs>
</svg>
