<svg width="56" height="32" viewBox="0 0 56 32" fill="none" xmlns="http://www.w3.org/2000/svg">
<path fill-rule="evenodd" clip-rule="evenodd" d="M5.32 9.33333C4.69775 9.33333 4.38662 9.33333 4.19331 9.14002C4 8.94671 4 8.63559 4 8.01333V5.32C4 4.69775 4 4.38662 4.19331 4.19331C4.38662 4 4.69775 4 5.32 4H8.01333C8.63559 4 8.94671 4 9.14002 4.19331C9.33333 4.38662 9.33333 4.69775 9.33333 5.32V8.01333C9.33333 8.63559 9.33333 8.94671 9.14002 9.14002C8.94671 9.33333 8.63558 9.33333 8.01333 9.33333H5.32ZM12 5.32C12 4.69775 12 4.38662 12.1933 4.19331C12.3866 4 12.6977 4 13.32 4H18.68C19.3023 4 19.6134 4 19.8067 4.19331C20 4.38662 20 4.69775 20 5.32V8.01333C20 8.63559 20 8.94671 19.8067 9.14002C19.6134 9.33333 19.3023 9.33333 18.68 9.33333H17.9933C17.6822 9.33333 17.5266 9.33333 17.43 9.42999C17.3333 9.52664 17.3333 9.68221 17.3333 9.99333V13.3467C17.3333 13.9689 17.3333 14.28 17.14 14.4734C16.9467 14.6667 16.6356 14.6667 16.0133 14.6667H13.32C12.6977 14.6667 12.3866 14.6667 12.1933 14.4734C12 14.28 12 13.9689 12 13.3467V5.32ZM23.9867 28C23.3644 28 23.0533 28 22.86 27.8067C22.6667 27.6134 22.6667 27.3023 22.6667 26.68V5.32C22.6667 4.69775 22.6667 4.38662 22.86 4.19331C23.0533 4 23.3644 4 23.9867 4H26.68C27.3023 4 27.6134 4 27.8067 4.19331C28 4.38662 28 4.69775 28 5.32V26.68C28 27.3023 28 27.6134 27.8067 27.8067C27.6134 28 27.3023 28 26.68 28H23.9867ZM30.6667 5.32C30.6667 4.69775 30.6667 4.38662 30.86 4.19331C31.0533 4 31.3644 4 31.9867 4H50.68C51.3023 4 51.6134 4 51.8067 4.19331C52 4.38662 52 4.69775 52 5.32V13.3467C52 13.9689 52 14.28 51.8067 14.4734C51.6134 14.6667 51.3023 14.6667 50.68 14.6667H47.9867C47.3644 14.6667 47.0533 14.6667 46.86 14.4734C46.6667 14.28 46.6667 13.9689 46.6667 13.3467V9.99333C46.6667 9.68221 46.6667 9.52664 46.57 9.42999C46.4734 9.33333 46.3178 9.33333 46.0067 9.33333H44.66C44.3489 9.33333 44.1933 9.33333 44.0967 9.42999C44 9.52664 44 9.68221 44 9.99333V13.3467C44 13.9689 44 14.28 43.8067 14.4734C43.6134 14.6667 43.3023 14.6667 42.68 14.6667H39.9867C39.3644 14.6667 39.0533 14.6667 38.86 14.4734C38.6667 14.28 38.6667 13.9689 38.6667 13.3467V9.99333C38.6667 9.68221 38.6667 9.52664 38.57 9.42999C38.4734 9.33333 38.3178 9.33333 38.0067 9.33333H36.66C36.3489 9.33333 36.1933 9.33333 36.0967 9.42999C36 9.52664 36 9.68221 36 9.99333V13.3467C36 13.9689 36 14.28 35.8067 14.4734C35.6134 14.6667 35.3023 14.6667 34.68 14.6667H31.9867C31.3644 14.6667 31.0533 14.6667 30.86 14.4734C30.6667 14.28 30.6667 13.9689 30.6667 13.3467V5.32ZM5.32 28C4.69775 28 4.38662 28 4.19331 27.8067C4 27.6134 4 27.3023 4 26.68V13.32C4 12.6977 4 12.3866 4.19331 12.1933C4.38662 12 4.69775 12 5.32 12H8.01333C8.63559 12 8.94671 12 9.14002 12.1933C9.33333 12.3866 9.33333 12.6977 9.33333 13.32V26.68C9.33333 27.3023 9.33333 27.6134 9.14002 27.8067C8.94671 28 8.63558 28 8.01333 28H5.32ZM12 18.6533C12 18.0311 12 17.72 12.1933 17.5266C12.3866 17.3333 12.6977 17.3333 13.32 17.3333H18.68C19.3023 17.3333 19.6134 17.3333 19.8067 17.5266C20 17.72 20 18.0311 20 18.6533V21.3467C20 21.9689 20 22.28 19.8067 22.4734C19.6134 22.6667 19.3023 22.6667 18.68 22.6667H17.9933C17.6822 22.6667 17.5266 22.6667 17.43 22.7633C17.3333 22.86 17.3333 23.0155 17.3333 23.3267V26.68C17.3333 27.3023 17.3333 27.6134 17.14 27.8067C16.9467 28 16.6356 28 16.0133 28H13.32C12.6977 28 12.3866 28 12.1933 27.8067C12 27.6134 12 27.3023 12 26.68V18.6533ZM30.6667 18.6533C30.6667 18.0311 30.6667 17.72 30.86 17.5266C31.0533 17.3333 31.3644 17.3333 31.9867 17.3333H50.68C51.3023 17.3333 51.6134 17.3333 51.8067 17.5266C52 17.72 52 18.0311 52 18.6533V26.68C52 27.3023 52 27.6134 51.8067 27.8067C51.6134 28 51.3023 28 50.68 28H47.9867C47.3644 28 47.0533 28 46.86 27.8067C46.6667 27.6134 46.6667 27.3023 46.6667 26.68V23.3267C46.6667 23.0155 46.6667 22.86 46.57 22.7633C46.4734 22.6667 46.3178 22.6667 46.0067 22.6667H44.66C44.3489 22.6667 44.1933 22.6667 44.0967 22.7633C44 22.86 44 23.0155 44 23.3267V26.68C44 27.3023 44 27.6134 43.8067 27.8067C43.6134 28 43.3023 28 42.68 28H39.9867C39.3644 28 39.0533 28 38.86 27.8067C38.6667 27.6134 38.6667 27.3023 38.6667 26.68V23.3267C38.6667 23.0155 38.6667 22.86 38.57 22.7633C38.4734 22.6667 38.3178 22.6667 38.0067 22.6667H36.66C36.3489 22.6667 36.1933 22.6667 36.0967 22.7633C36 22.86 36 23.0155 36 23.3267V26.68C36 27.3023 36 27.6134 35.8067 27.8067C35.6134 28 35.3023 28 34.68 28H31.9867C31.3644 28 31.0533 28 30.86 27.8067C30.6667 27.6134 30.6667 27.3023 30.6667 26.68V18.6533Z" fill="black"/>
<path fill-rule="evenodd" clip-rule="evenodd" d="M50.8415 0C52.8613 0 53.8717 0 54.6074 0.466797C54.9803 0.70342 55.2966 1.01972 55.5332 1.39258C56 2.12826 56 3.13867 56 5.15847V26.8415C56 28.8613 56 29.8717 55.5332 30.6074C55.2966 30.9803 54.9803 31.2966 54.6074 31.5332C53.8717 32 52.8613 32 50.8415 32H5.15847C3.13867 32 2.12826 32 1.39258 31.5332C1.01972 31.2966 0.703421 30.9803 0.466797 30.6074C0 29.8717 0 28.8613 0 26.8415V5.15847C0 3.13867 0 2.12826 0.466797 1.39258C0.703421 1.01972 1.01972 0.70342 1.39258 0.466797C2.12826 0 3.13867 0 5.15847 0H50.8415ZM54.9463 2.8916C54.9988 3.42892 55 4.12969 55 5.16016V26.8398C55 27.8703 54.9988 28.5711 54.9463 29.1084C54.8953 29.6299 54.8033 29.8903 54.6885 30.0713C54.5307 30.3199 54.3199 30.5307 54.0713 30.6885C53.8903 30.8033 53.6299 30.8953 53.1084 30.9463C52.5711 30.9988 51.8703 31 50.8398 31H5.16016C4.12969 31 3.42892 30.9988 2.8916 30.9463C2.37006 30.8953 2.10974 30.8033 1.92871 30.6885C1.68014 30.5307 1.46927 30.3199 1.31152 30.0713C1.19669 29.8903 1.10469 29.6299 1.05371 29.1084C1.00119 28.5711 1 27.8703 1 26.8398V5.16016C1 4.12969 1.00119 3.42892 1.05371 2.8916C1.10469 2.37006 1.19669 2.10974 1.31152 1.92871C1.46927 1.68014 1.68014 1.46927 1.92871 1.31152C2.10974 1.19669 2.37006 1.10469 2.8916 1.05371C3.42892 1.00119 4.12969 1 5.16016 1H50.8398C51.8703 1 52.5711 1.00119 53.1084 1.05371C53.6299 1.10469 53.8903 1.19669 54.0713 1.31152C54.3199 1.46927 54.5307 1.68014 54.6885 1.92871C54.8033 2.10974 54.8953 2.37006 54.9463 2.8916Z" fill="black"/>
</svg>
