<svg width="180" height="180" viewBox="0 0 180 180" fill="none" xmlns="http://www.w3.org/2000/svg">
<rect width="180" height="180" fill="white"/>
<path fill-rule="evenodd" clip-rule="evenodd" d="M17 70V54H33.2222V70H17ZM41.3333 54H65.6667V70H57.5556V86H41.3333V54ZM73.7778 126V54H90V126H73.7778ZM98.1111 54H163V86H146.778V70H138.667V86H122.444V70H114.333V86H98.1111V54ZM17 126V78H33.2222V126H17ZM41.3333 94H65.6667V110H57.5556V126H41.3333V94ZM98.1111 94H163V126H146.778V110H138.667V126H122.444V110H114.333V126H98.1111V94Z" fill="#050505"/>
</svg>
