<svg width="400" height="196" viewBox="0 0 400 196" fill="none" xmlns="http://www.w3.org/2000/svg">
<path d="M102.054 44.4339C109.076 45.7618 115.792 50.1861 118.393 57.0468C119.231 59.2573 119.501 62.1279 121.009 63.9857C122.283 65.4266 126.974 64.7297 128.704 64.8536C138.621 65.6316 149.644 68.7728 157.049 75.7036C160.436 78.8741 162.208 83.0831 163.264 87.4705C163.94 90.2745 163.879 92.9469 163.884 95.803C167.613 94.2041 170.702 91.1005 174.07 88.666C182.334 82.6929 193.791 76.4551 204.256 76.9813C208.434 77.1913 213.015 78.382 215.846 81.5714C219.048 85.1811 219.981 92.7883 219.641 97.4559C221.304 95.8533 223.23 94.513 224.955 92.9705C237.099 82.1119 257.651 65.0601 274.475 64.0652C279.031 63.7959 283.483 64.4161 287.009 67.5657C298.293 77.6479 289.275 95.4956 284.061 106.356C282.34 109.964 280.672 113.598 279.058 117.256C277.115 121.566 274.732 125.8 275.035 130.629C275.079 131.324 275.15 132.389 275.686 132.865C276.8 133.324 278.162 132.471 279.048 131.823C286.047 126.844 290.865 120.707 296.221 114.124C306.197 101.861 315.435 88.5541 325.68 76.5415C333.236 67.6814 344.475 59.7471 355.349 55.8513C364.488 52.5765 373.561 51.3679 382.566 55.7956C388.685 58.6682 393.083 63.3025 395.45 69.5988C399.6 80.6466 396.461 94.1799 391.577 104.564C382.535 123.365 367.817 139.151 348.32 147.082C333.286 153.196 316.225 149.439 309.364 133.764C308.512 131.817 307.922 129.362 307.187 127.285C304.847 129.122 303.433 131.274 301.44 133.372C293.626 141.605 283.671 153.584 270.873 150.368C266.313 149.221 261.53 146.25 259.076 142.161C251.868 130.147 257.382 118.78 262.777 107.534L269.643 93.2427C271.089 90.2839 273.138 87.0853 273.856 83.8721C273.999 83.2331 274.199 82.2299 273.803 81.6549C273.682 81.48 273.399 81.3709 273.195 81.3407C265.6 80.221 236.399 107.012 230.104 113.164C226.625 116.562 223.376 120.289 220.12 123.9C217.214 127.122 214.441 130.522 211.743 133.92C208.077 138.535 204.559 143.305 199.827 146.92C197.817 148.455 195.817 149.313 193.242 148.954C191.286 148.68 189.307 147.721 188.114 146.11C186.77 144.296 186.501 141.744 186.805 139.565C187.284 136.135 188.913 132.622 190.122 129.386C192.249 123.694 194.403 118.016 196.369 112.266C197.642 108.545 199.087 104.517 199.636 100.615C199.798 99.4597 199.977 97.6049 199.193 96.6161C198.955 96.3163 198.574 96.1827 198.205 96.1382C195.737 95.8412 191.634 98.6152 189.637 99.9171C186.925 101.685 184.026 103.186 181.491 105.222C176.58 109.165 172.157 114.237 167.877 118.851L151.365 136.475C147.694 140.327 140.928 149.677 135.058 148.903C130.253 148.501 126.811 141.286 127.892 137.016C131.509 122.933 141.431 110.954 143.736 96.3473C145.137 87.4711 141.399 84.1463 132.751 83.2462C129.797 82.9386 122.164 81.1502 119.46 82.4335C117.94 83.1547 116.369 89.7664 115.545 91.3805C107.455 111.984 92.0135 130.254 74.9999 144.09C68.7829 149.145 57.644 153.707 49.7893 152.666C37.5392 150.951 28.9954 141.237 31.1819 128.714C34.5958 109.162 48.2204 96.0407 64.0976 85.612C73.1515 79.6653 82.0586 74.8168 92.2658 71.0116C95.4917 69.809 98.9593 68.9673 101.795 66.9034C101.983 66.4632 102.097 66.2742 101.964 65.7878C101.782 65.1208 100.828 64.5329 100.261 64.2123C95.0248 61.2551 87.8695 61.9436 82.2079 62.9469C62.7294 66.3992 46.1946 79.3646 33.3894 93.8503C27.4783 100.537 24.7572 106.515 17.1338 111.824C16.0251 112.596 14.7373 113.557 13.4192 113.907C11.3401 114.459 8.36821 113.642 6.55781 112.583C4.42716 111.337 2.96149 109.338 2.34084 106.957C1.1686 102.459 3.21737 97.0377 5.48556 93.1774C13.1707 80.0975 34.2296 64.5201 47.1033 57.0595C51.205 54.6903 55.4553 52.5884 59.828 50.767C64.7212 48.7024 69.7527 46.9812 74.8853 45.6159C77.0795 45.0264 78.9022 44.4836 81.5318 44.0291C89.4307 42.6638 95.8946 43.2692 102.054 44.4339ZM329.788 133.218C330.982 133.463 332.203 133.745 333.419 133.839C335.589 133.638 337.044 133.909 339.331 133.269C348.855 130.421 358.217 122.586 364.502 115.075C373.28 104.581 381.3 91.4794 380.205 77.3C379.969 74.2379 376.539 70.0337 373.302 70.5923C370.601 70.7124 367.587 70.8862 365.009 71.8331C356.069 75.1187 348.346 82.0608 341.922 88.8377C334.352 96.8253 318.588 123.114 329.278 132.773C329.446 132.924 329.616 133.072 329.788 133.218ZM52.4354 132.768C62.8639 137.031 82.531 113.656 87.4937 106.167C90.6313 101.432 96.1696 93.5903 98.2752 88.3944C98.3126 88.3017 98.3489 88.2087 98.384 88.1153L98.2701 87.881L97.8244 87.9462C95.9075 88.0977 94.5232 88.8837 92.8106 89.6894C79.7197 95.8465 67.2161 104.054 57.2459 114.594C54.3406 117.665 48.0173 129.069 52.1841 132.573C52.2653 132.641 52.3492 132.706 52.4354 132.768Z" fill="black"/>
</svg>
