<svg width="196" height="196" viewBox="0 0 196 196" fill="none" xmlns="http://www.w3.org/2000/svg">
<g clip-path="url(#clip0_6211_95)">
<path d="M138.4 0C158.562 1.72067e-10 168.643 8.86735e-05 176.344 3.92383C183.118 7.37526 188.625 12.8825 192.076 19.6562C196 27.357 196 37.438 196 57.5996V138.4C196 158.562 196 168.643 192.076 176.344C188.625 183.118 183.118 188.625 176.344 192.076C168.643 196 158.562 196 138.4 196H57.5996C37.438 196 27.357 196 19.6562 192.076C12.8825 188.625 7.37526 183.118 3.92383 176.344C8.82946e-05 168.643 1.67085e-10 158.562 0 138.4V57.5996C1.72067e-10 37.438 8.86735e-05 27.357 3.92383 19.6562C7.37526 12.8825 12.8825 7.37526 19.6562 3.92383C27.357 8.82946e-05 37.438 1.67085e-10 57.5996 0H138.4ZM56.6104 59.4111C66.2136 69.0225 72.2004 82.249 72.3564 96.8799V97.459C72.3563 112.316 66.3392 125.77 56.6104 135.507L72.6934 151.603C86.5373 137.747 95.0985 118.605 95.0986 97.459C95.0986 76.3181 86.5373 57.17 72.6934 43.3145L56.6104 59.4111ZM123.186 43.3145C109.342 57.17 100.779 76.3181 100.779 97.459H100.774C100.775 118.605 109.336 137.747 123.18 151.603L139.263 135.507C129.534 125.77 123.518 112.316 123.518 97.459V96.8799C123.674 82.2491 129.66 69.0225 139.263 59.4111L123.186 43.3145ZM35.7344 78.1113C40.5033 82.8843 43.5172 89.4089 43.7285 96.6338C43.7537 96.7544 43.7685 96.8752 43.7686 97.001C43.7686 97.1016 43.7582 97.2081 43.7432 97.3037V97.46C43.743 105.017 40.6792 111.855 35.7344 116.809V116.812L51.9531 133.045C61.0532 123.937 66.6825 111.355 66.6826 97.46C66.6826 83.564 61.0533 70.9819 51.9531 61.874L35.7344 78.1113ZM143.976 61.874C134.876 70.9818 129.246 83.564 129.246 97.46C129.246 111.355 134.876 123.937 143.976 133.045L160.193 116.812V116.809C155.249 111.855 152.186 105.017 152.186 97.46V97.3037C152.17 97.2081 152.161 97.1016 152.161 97.001C152.161 96.8752 152.176 96.7544 152.201 96.6338C152.412 89.4039 155.43 82.8835 160.193 78.1055L143.976 61.874Z" fill="black"/>
</g>
<defs>
<clipPath id="clip0_6211_95">
<rect width="196" height="196" fill="white"/>
</clipPath>
</defs>
</svg>
