<svg width="64" height="64" viewBox="0 0 64 64" fill="none" xmlns="http://www.w3.org/2000/svg">
<rect width="64" height="64" fill="white" style="fill:white;fill-opacity:1;"/>
<path d="M20 32C20 28.2725 20 26.4087 20.609 24.9385C21.4209 22.9783 22.9783 21.4209 24.9385 20.609C26.4087 20 28.2725 20 32 20C35.7275 20 37.5913 20 39.0615 20.609C41.0217 21.4209 42.5791 22.9783 43.391 24.9385C44 26.4087 44 28.2725 44 32C44 35.7275 44 37.5913 43.391 39.0615C42.5791 41.0217 41.0217 42.5791 39.0615 43.391C37.5913 44 35.7275 44 32 44C28.2725 44 26.4087 44 24.9385 43.391C22.9783 42.5791 21.4209 41.0217 20.609 39.0615C20 37.5913 20 35.7275 20 32Z" fill="black" style="fill:black;fill-opacity:1;"/>
</svg>
