<svg width="196" height="196" viewBox="0 0 196 196" fill="none" xmlns="http://www.w3.org/2000/svg">
<g clip-path="url(#clip0_6239_1102)">
<path d="M98 0C137.325 0 156.988 -0.000202179 171.112 9.4375C177.227 13.5231 182.477 18.7732 186.562 24.8877C196 39.0122 196 58.6751 196 98C196 137.325 196 156.988 186.562 171.112C182.477 177.227 177.227 182.477 171.112 186.562C156.988 196 137.325 196 98 196C58.6751 196 39.0122 196 24.8877 186.562C18.7732 182.477 13.5231 177.227 9.4375 171.112C-0.000202179 156.988 0 137.325 0 98C0 58.6751 -0.000202179 39.0122 9.4375 24.8877C13.5231 18.7732 18.7732 13.5231 24.8877 9.4375C39.0122 -0.000202179 58.6751 0 98 0ZM97.2002 29C78.7211 29 69.4809 28.9995 63.7402 34.7402C57.9995 40.4809 58 49.7211 58 68.2002V69.7998C58 88.2789 57.9995 97.5191 63.7402 103.26C69.4809 109 78.7211 109 97.2002 109H98.7998C117.279 109 126.519 109 132.26 103.26C138 97.5191 138 88.2789 138 69.7998V68.2002C138 49.7211 138 40.4809 132.26 34.7402C126.519 28.9995 117.279 29 98.7998 29H97.2002Z" fill="black"/>
</g>
<defs>
<clipPath id="clip0_6239_1102">
<rect width="196" height="196" fill="white"/>
</clipPath>
</defs>
</svg>
