<svg width="196" height="196" viewBox="0 0 196 196" fill="none" xmlns="http://www.w3.org/2000/svg">
<path d="M139.85 18.125C127.25 11.6 113.075 8 98 8C82.925 8 68.75 11.6 56.15 18.125C27.575 33.2 8 63.35 8 98C8 132.65 27.575 162.8 56.375 177.875C68.75 184.175 82.925 188 98 188C113.075 188 127.025 184.175 139.625 177.65C168.425 162.8 188 132.65 188 98C188 63.35 168.425 33.2 139.85 18.125ZM17 98C17 68.525 32.75 42.875 56.375 28.475C67.85 21.5 81.125 17.45 95.75 17L85.625 90.575L56.375 113.3L26.675 136.475C20.6 125 17 111.95 17 98ZM139.85 167.3C127.475 174.725 113.3 179 98 179C82.7 179 68.3 174.725 56.15 167.3C45.125 160.775 36.125 151.775 29.375 140.975L56.15 129.95L98 112.85L139.85 129.725L166.85 140.75C160.1 151.775 150.65 160.775 139.85 167.3ZM139.85 113.3L110.825 90.8L100.475 17C114.65 17.45 128.15 21.5 139.625 28.475C163.25 42.65 179 68.525 179 98C179 111.95 175.625 125 169.325 136.475L139.85 113.3Z" fill="black"/>
</svg>
