<svg width="1000" height="1000" viewBox="0 0 1000 1000" fill="none" xmlns="http://www.w3.org/2000/svg">
<rect width="1000" height="1000" fill="black"/>
<path d="M686 145C630 116 567 100 500 100C433 100 370 116 314 145C187 212 100 346 100 500C100 654 187 788 315 855C370 883 433 900 500 900C567 900 629 883 685 854C813 788 900 654 900 500C900 346 813 212 686 145ZM140 500C140 369 210 255 315 191C366 160 425 142 490 140L445 467L315 568L183 671C156 620 140 562 140 500ZM686 808C631 841 568 860 500 860C432 860 368 841 314 808C265 779 225 739 195 691L314 642L500 566L686 641L806 690C776 739 734 779 686 808ZM686 568L557 468L511 140C574 142 634 160 685 191C790 254 860 369 860 500C860 562 845 620 817 671L686 568Z" fill="white"/>
</svg>
