<svg width="196" height="196" viewBox="0 0 196 196" fill="none" xmlns="http://www.w3.org/2000/svg">
<path d="M109.187 75.5915C109.187 81.7756 104.173 86.7898 97.9883 86.7898C91.8042 86.7898 86.79 81.7756 86.79 75.5915V19.6H19.6V60.6684C19.6 81.2861 36.3139 98 56.9317 98C36.3139 98 19.6 114.714 19.6 135.332V176.4H86.79V120.432C86.79 114.248 91.8042 109.234 97.9883 109.234C104.173 109.234 109.187 114.248 109.187 120.432V176.4H176.376V135.332C176.376 114.714 159.663 98 139.045 98C159.663 98 176.376 81.2861 176.376 60.6684V19.6H109.187V75.5915Z" fill="black"/>
</svg>
